<?xml version="1.0" encoding="UTF-8"?>
<svg id="_圖層_1" xmlns="http://www.w3.org/2000/svg" version="1.1" viewBox="0 0 262.59 74.12">
  <!-- Generator: Adobe Illustrator 30.1.0, SVG Export Plug-In . SVG Version: 2.1.1 Build 136)  -->
  <defs>
    <style>
      .st0 {
        fill: #c4a561;
      }
    </style>
  </defs>
  <path class="st0" d="M243.84,62.23l.8-3.62,1.18-5.41.65-2.71c.02-.07,0-.2-.01-.26s-.21.07-.24.16c-.51,1.48-1.39,3.08-2.36,4.43-1.32,1.86-2.82,3.47-4.81,4.6-1.76,1-3.61,1.64-5.66,1.65l-7.46.05-2.98.05-2.7-.05c-.88-.02-1.65.16-2.55-.13l1.7-2.34,1.27-1.89,3.1-4.63,2.39-3.68,7.16-10.92,4.58-7,3.33-5.11,3.7-5.6.86-1.25-6.68.04h-16.4l-7.16-.03-1.08,6.08-.94,4.38c.95-1.59,1.64-3.06,2.72-4.42,2.55-3.21,5.65-4.8,9.78-4.92l4.89-.04,8.02.02-3.98,5.94-5.8,8.9-7.95,12.16-5.45,8.36c-1.55,2.38-2.97,4.7-4.7,7.1l1.76-.03,5.28.06,23.8.07h1.93-.01ZM109.85,32.73l4.02-7.12c.22-.39.45-.74.68-1.12,1.78-2.83,2.59-4.26,5.81-5.87l-8.98.04c1.66.51,2.66,1.58,2.45,3.23-.14,1.1-.55,2.1-1.05,3.08l-1.49,2.91-3.88,6.91-2.46,4.36c-.07.07-.25.26-.29.18l-.16-.3-2.84-5.25-1.46-2.59-2.76-5.11c-.75-1.38-1.58-2.75-1.99-4.23-.45-1.62.62-2.72,2.23-3.17-1.64-.12-3.2-.06-4.82-.06h-7.47c.72.51,1.52.75,2.13,1.31,1.69,1.52,2.81,3.44,3.91,5.39l1.1,1.95,2.85,5.24,3.35,6.06,1.49,2.55.03,15.8c0,1.59-.4,2.98-1.5,4.13-.56.58-1.3.59-2.14,1.09l11.07.02c.46,0,.89.17,1.34-.07-1.74-.43-2.95-1.52-3.35-3.21-.13-.57-.29-1.2-.29-1.84l-.06-15.81c0-.48-.02-.76.24-1.15.99-1.46,1.81-2.97,2.69-4.49l1.62-2.84h0ZM152.62,59.8c-2.05,1.03-4.16,1.33-6.42,1.35l-10.63.07.03-16.95c0-.29.18-.82.29-1.06.74-1.64,2.26-2.8,4.12-3.02s3.62-.16,5.44.01c2.4.23,4.09,2.11,4.79,4.38l.1-4.11.05-5.88c0-.06.06-.26.08-.32s-.3-.02-.33.08c-.21.77-.78,1.98-1.41,2.78-.78,1-2.02,1.65-3.32,1.77-1.81.15-3.59.16-5.37-.1-1.32-.19-2.54-.74-3.35-1.8-.6-.77-1.09-1.77-1.09-2.77l-.02-8.64-.02-5.95,10.53.02c2.26,0,4.34.74,6.26,1.85,2.42,1.39,4.28,4.59,5.51,7.06l-1.25-6.93-.41-2.12c-.06-.3-.19-.65-.32-.91l-28.36.02c2.3.76,2.96,2.66,2.96,4.83l.02,9.83c0,.51.17.99.34,1.43.9,2.41,3.57,3.83,5.95,4.25l3.06.55c-3.47.35-7.89,1.11-9.12,4.74-.33.97-.24,1.97-.24,3.02l-.07,9.86c0,.9-.19,1.81-.5,2.6-.49,1.25-1.42,1.86-2.78,2.32,2.06.16,4.01.07,6.04.09l3.74.04h10.02s8.03-.02,8.03-.02l2.45.07,1.22-6.24.88-4.86c-.5.67-.72,1.36-1.01,2.06-1.19,2.75-3.16,5.15-5.88,6.62h0ZM191.83,51.7l4.64,6.87c.76,1.12,1.4,2.22,2.21,3.3.35.46.95.66,1.46.39l.03-8.8v-27.85c0-2.56.62-6,3.36-6.79.06-.02.2-.13.18-.13-.03,0-.19-.07-.25-.07l-2.35.04h-5.97c.85.5,1.68.6,2.23,1.26,1.81,2.16,1.43,5.68,1.57,8.38.05.96.06,1.82.06,2.83l-.04,20.33-.08,1.99-.64-.88-2.33-3.61-2.07-3.1-1.92-2.95-5.52-8.27-1.57-2.36-3.28-5.03-3.88-5.89-1.81-2.76-7.88.07c1.7.73,3.01,1.62,3.37,3.36.19.9.11,1.85.19,2.78.03.34-.03.65-.03,1.01l-.03,18.29.02,7.87c0,.42-.06.86-.07,1.26l-.1,3.05c-.29,2.76-.79,4.82-3.74,5.84l8.62-.02c.3,0,.6.13.87-.06-3.94-.72-4.34-4.65-4.34-7.96v-13.8s-.02-10.2-.02-10.2c0-.49-.1-.96-.04-1.44.13-1.14.04-2.26,0-3.4l-.07-2.57c.39.25.44.58.65.9l3.61,5.51,4.33,6.54,2.66,3.99,4.08,6.13,1.94,3,1.97,2.92h0Z"/>
  <path class="st0" d="M43.47,65.31c-1.09.09-3.29.01-4.3-.22l-1.46-.33c-.35-.08-.83-.23-1.16-.38l-1.21-.55c-1.38-.63-2.74-1.42-3.88-2.46-.53-.49-1.2-.89-1.65-1.47l-1.04-1.33c-.97-1.24-2.43-3.51-2.66-5.15-3.88-.96-6.16-2.53-8.9-5.35-.94-.97-2.52-3.62-2.95-4.99-.63-2.02-.51-1.64-.76-3.78-.05-.43-.03-.83-.01-1.26.17-3.42,1.17-6.37,3.16-9.19.86-1.22,2.41-2.82,3.63-3.73.37-.28,1.75-1.15,2.17-1.36.98-.5,1.99-.9,2.99-1.33.73-1.4,1.42-2.77,2.44-3.98.85-1.01,1.73-1.96,2.78-2.73,2.33-1.7,3.95-2.77,6.78-3.57,1.65-.47,4.08-.79,5.74-.61,1.36.15,2.95.38,4.22.83,4.99,1.76,9.08,5.12,11.18,10.02,3.07,1.1,5.78,2.69,7.86,5.19.43.52.85,1,1.2,1.58l.58.98c.19.32.4.6.55.94.66,1.57,1.33,3.12,1.54,4.82l.18,1.48c.24,2.01-.28,4.36-.89,6.26-.37,1.16-1.43,2.98-2.23,3.96l-.84,1.03c-1.32,1.62-3.28,2.78-5.12,3.72-.84.42-2.37.85-3.37,1.1-.79,2.84-1.66,4.12-3.56,6.36-.15.19-1.27,1.31-1.42,1.43l-1,.79c-2.41,1.9-5.52,3.03-8.6,3.28h0ZM53.76,22.12c.08,0,.23.06.28.07s-.05.18-.09.19l-1.05.17c-.34.06-.62.15-.93.25-2.01.64-2.52.71-4.25,1.99-2.17,1.6-3.97,4-4.16,6.78-.08,1.17-.14,2.28-.1,3.45l.06,1.96v2.45c.01.07.28.13.36.12l1.47-.28c2.08-.39,4.5-1.31,6.26-2.53.94-.66,1.77-1.46,2.49-2.33.41-.5.88-1.31,1.21-1.85.47-.8.75-1.51,1.07-2.41.24-.67.44-2.53.4-3.32l-.06-1.28c-.1-2.12-1.1-4.61-2.23-6.37-.28-.44-.56-.87-.91-1.26l-.7-.79c-1.38-1.56-2.42-2.27-4.23-3.26-2.66-1.46-6.57-1.89-9.52-1.22-1.5.34-2.96.74-4.27,1.56l-.84.53c-.41.26-.8.56-1.17.88-1.74,1.48-3.11,3.22-4.07,5.28-.36.77-.72,1.53-.89,2.38-.23,1.15-.45,2.28-.45,3.46,0,.44.3,2.58.39,2.94.76,2.94,2.71,5.44,5.17,7.14,2.27,1.57,3.91,1.91,6.5,2.5.45.1.88.18,1.33.2l-.02-3.47-.02-2.32c0-1.3.13-2.55-.33-3.76-.47-1.27-1-2.45-1.89-3.45-2.23-2.5-4.37-3.27-7.51-4.01-.34-.08-.77.1-1.06-.26,4.64-.63,9.49.78,12.1,4.86,1.43-2.16,3.09-3.42,5.52-4.22l.82-.27c1.86-.61,3.41-.5,5.31-.49h0ZM33,51.62c-.07-.67-.06-1.29-.06-1.98l.03-8.97c0-.61-.01-1.17-.03-1.82-2.54-1.42-3.95-2.14-5.92-4.34-2.72-3.03-3.35-6.9-1.94-10.88-2.18.56-4.5,2.14-6.1,3.74-2.55,2.29-4.36,6.57-3.93,9.96.18,1.38.49,3.04,1.05,4.25.84,1.79,1.63,2.98,2.98,4.44,1.84,1.98,4,3.55,6.38,4.82,1.1.58,2.22.93,3.43,1.23.99.25,4.28,1.19,4.1-.45ZM65.48,45.66c1.18-1.41,2.37-3.52,2.92-5.2.71-2.12.87-4.65.33-6.79-.23-.92-.53-1.78-.93-2.64-.49-1.04-1.2-1.91-1.85-2.85-.39-.56-.92-1-1.44-1.44l-.8-.68c-1.08-.92-2.25-1.57-3.57-2.07-.35-.13-.69-.34-1.06-.28.29.89.51,1.59.7,2.44.03.15,0,.5.02.67.42,2.67-.94,6.07-2.83,8.03l-.38.4c-1.53,1.58-3.36,2.77-5.41,3.6.02.2.05.4.05.6v12.87c.57.33,1.17.21,1.78.16,1.58-.12,3.03-.45,4.5-1.06,2.21-.91,4.3-2.14,6.03-3.79.68-.65,1.32-1.24,1.94-1.97h0ZM51.65,53.57c-.94,0-1.84-.07-2.77-.04l-1.15.03c-.3,0-.52.02-.84,0,1.11-.7,1.36-1.7,1.34-2.91v-.96s-.04-4.6-.04-4.6l-.02-2.54.06-2.78c-.15-.03-.45.01-.72.07-1.3.3-2.61.46-3.99.6.05,1.1.04,2.23.01,3.37l-.02.77-.03.88v9.33c0,1.87.72,2.67,2.13,3.84-.36.22-.83.03-1.27.03h-4.9c-.3,0-.6.12-.95.03.85-.61,1.7-1.22,2.03-2.28l.27-.84v-9.31l-.02-1.09.04-4.69-3.75-.58-1.08-.28c.04.6.08.97.08,1.51l.02,10.4c0,.78.59,1.56,1.32,2.06-1.55-.07-3-.04-4.51-.01l-1.43.03-1.38-.03-2.41-.09c.02.36.06.75.2,1.06l.97,2.11c.53,1.15.51.76,1.1,1.67.42.66.96,1.18,1.5,1.74,1.08,1.11,2.62,2.32,4.04,2.96l1.09.49c.72.33,1.44.46,2.21.66,2.38.6,4.77.51,7.18-.12.87-.23,1.73-.5,2.54-.88.92-.44,3.09-1.87,3.76-2.53l1.01-.99c.41-.41.82-.94,1.13-1.42l.47-.73c.64-.99,1.76-2.99,1.79-4.04l-.96.09c-.98.09-1.91.04-2.89.04h-1.14Z"/>
</svg>