<?xml version="1.0" encoding="UTF-8"?>
<svg id="_圖層_1" data-name="圖層_1" xmlns="http://www.w3.org/2000/svg" version="1.1" viewBox="0 0 443.06 146.12">
  <!-- Generator: Adobe Illustrator 30.1.0, SVG Export Plug-In . SVG Version: 2.1.1 Build 136)  -->
  <defs>
    <style>
      .st0 {
        fill: #c4a561;
      }
    </style>
  </defs>
  <line class="st0" x1="-397.41" y1="-499.76" x2="65.65" y2="-499.76"/>
  <path class="st0" d="M414.15,127.58l2.04-9.19,3-13.7,1.63-6.87c.04-.17,0-.51-.03-.66s-.54.19-.61.41c-1.29,3.74-3.54,7.79-5.98,11.23-3.36,4.72-7.16,8.8-12.19,11.66-4.46,2.54-9.15,4.15-14.36,4.18l-18.92.13-7.55.13-6.83-.13c-2.22-.04-4.18.4-6.46-.33l4.3-5.92,3.22-4.77,7.87-11.73,6.06-9.32,18.15-27.69,11.6-17.75,8.45-12.95,9.37-14.19,2.18-3.16-16.92.1-23.05-.02-18.52.02-18.15-.07-2.74,15.4-2.37,11.11c2.42-4.03,4.16-7.76,6.9-11.21,6.47-8.15,14.32-12.16,24.78-12.48l12.38-.11,20.33.04-10.08,15.07-14.7,22.55-20.14,30.82-13.81,21.2c-3.93,6.04-7.53,11.92-11.93,17.99l4.47-.07,13.38.14,60.32.16,4.9-.02ZM74.48,52.81l10.21-18.05c.56-1,1.13-1.89,1.72-2.84,4.51-7.18,6.55-10.79,14.71-14.86l-22.77.12c4.21,1.31,6.74,4.01,6.21,8.18-.35,2.78-1.39,5.31-2.66,7.79l-3.79,7.37-9.83,17.51-6.24,11.05c-.17.18-.63.66-.74.47l-.41-.77-7.2-13.33-3.69-6.57-7-12.95c-1.89-3.5-4.01-6.97-5.05-10.71-1.13-4.09,1.56-6.91,5.65-8.04-4.17-.3-8.12-.15-12.23-.14H12.43c1.83,1.28,3.84,1.9,5.41,3.31,4.28,3.85,7.12,8.71,9.91,13.67l2.78,4.93,7.22,13.27,8.49,15.37,3.77,6.46.09,40.06c0,4.04-1,7.57-3.8,10.47-1.43,1.48-3.3,1.49-5.44,2.75l28.07.04c1.18,0,2.25.41,3.39-.17-4.41-1.09-7.48-3.85-8.49-8.14-.34-1.45-.73-3.04-.73-4.66l-.15-40.08c0-1.21-.06-1.93.61-2.92,2.51-3.71,4.6-7.52,6.81-11.4l4.12-7.2ZM182.92,121.43c-5.18,2.6-10.55,3.38-16.29,3.42l-26.95.19.07-42.98c0-.74.45-2.07.74-2.69,1.89-4.16,5.73-7.1,10.45-7.65,4.49-.52,9.19-.41,13.79.03,6.08.58,10.37,5.36,12.15,11.11l.27-10.43.13-14.91c0-.15.15-.67.19-.81s-.75-.04-.82.21c-.53,1.94-1.98,5.04-3.56,7.04-1.99,2.53-5.12,4.2-8.42,4.48-4.59.4-9.11.4-13.61-.25-3.35-.49-6.43-1.89-8.49-4.56-1.5-1.95-2.76-4.49-2.77-7.04l-.06-21.9-.05-15.09,26.69.05c5.73.01,10.99,1.88,15.87,4.68,6.14,3.53,10.85,11.64,13.97,17.89l-3.17-17.56-1.05-5.36c-.15-.76-.49-1.63-.81-2.31l-71.9.06c5.85,1.93,7.49,6.75,7.5,12.25l.05,24.91c0,1.3.42,2.5.85,3.64,2.3,6.12,9.04,9.69,15.09,10.78l7.76,1.39c-8.81.88-20,2.82-23.13,12-.84,2.46-.6,5.01-.61,7.64l-.16,25c-.02,2.3-.49,4.59-1.27,6.58-1.23,3.18-3.59,4.71-7.05,5.87,5.23.4,10.16.17,15.32.22l9.49.1,25.41-.02,20.36-.03,6.21.17,3.09-15.82,2.22-12.33c-1.27,1.7-1.81,3.45-2.57,5.21-3.02,6.97-8.01,13.05-14.91,16.79ZM282.29,100.89l11.77,17.41c1.92,2.84,3.54,5.63,5.61,8.36.88,1.16,2.42,1.66,3.71.97l.06-22.31-.02-36.72v-33.86c0-6.51,1.57-15.21,8.53-17.22.14-.04.52-.32.45-.34-.08-.02-.5-.18-.63-.18l-5.96.12h-15.13c2.16,1.27,4.26,1.53,5.66,3.2,4.58,5.48,3.62,14.42,3.97,21.23.13,2.45.16,4.62.15,7.17l-.11,51.55-.2,5.04-1.62-2.23-5.91-9.14-5.23-7.86-4.88-7.48-13.99-20.96-3.97-5.99-8.31-12.76-9.82-14.94-4.58-7-19.99.18c4.32,1.85,7.63,4.11,8.55,8.52.47,2.28.28,4.7.48,7.06.07.87-.09,1.65-.09,2.58l-.07,46.37.05,19.96c0,1.07-.14,2.18-.18,3.2l-.26,7.74c-.73,7-2,12.23-9.47,14.81l21.86-.04c.77,0,1.53.32,2.21-.14-9.98-1.82-11.01-11.78-11.01-20.19l.02-34.99-.09-25.85c0-1.25-.25-2.44-.12-3.66.32-2.87.1-5.73.02-8.62l-.18-6.51c1,.63,1.1,1.47,1.63,2.28l9.14,13.96,10.97,16.6,6.73,10.1,10.34,15.55,4.92,7.62,4.99,7.41Z"/>
</svg>