<?xml version="1.0" encoding="UTF-8"?>
<svg id="_圖層_1" data-name="圖層_1" xmlns="http://www.w3.org/2000/svg" version="1.1" viewBox="0 0 125.65 115.76">
  <!-- Generator: Adobe Illustrator 30.1.0, SVG Export Plug-In . SVG Version: 2.1.1 Build 136)  -->
  <defs>
    <style>
      .st0 {
        fill: #c4a561;
      }
    </style>
  </defs>
  <path class="st0" d="M66.46,109.28c-1.97.16-5.97.02-7.8-.4l-2.65-.6c-.64-.15-1.5-.42-2.1-.69l-2.2-1c-2.51-1.14-4.97-2.57-7.03-4.46-.97-.89-2.17-1.62-2.99-2.67l-1.88-2.41c-1.76-2.25-4.41-6.37-4.83-9.34-7.03-1.74-11.18-4.58-16.14-9.71-1.7-1.76-4.57-6.57-5.35-9.05-1.15-3.67-.92-2.97-1.38-6.86-.09-.78-.06-1.51-.02-2.28.3-6.21,2.12-11.55,5.73-16.66,1.56-2.21,4.38-5.12,6.59-6.76.68-.51,3.17-2.08,3.94-2.47,1.78-.91,3.61-1.63,5.43-2.42,1.32-2.54,2.58-5.03,4.42-7.21,1.55-1.83,3.13-3.55,5.04-4.96,4.22-3.08,7.17-5.02,12.3-6.48,2.99-.85,7.4-1.43,10.41-1.1,2.46.27,5.35.69,7.66,1.51,9.05,3.19,16.46,9.28,20.28,18.17,5.57,1.99,10.48,4.87,14.25,9.41.78.94,1.54,1.81,2.17,2.87l1.06,1.78c.34.58.73,1.09.99,1.71,1.19,2.85,2.42,5.65,2.79,8.74l.32,2.68c.43,3.64-.5,7.9-1.62,11.36-.68,2.11-2.6,5.4-4.05,7.19l-1.52,1.86c-2.39,2.93-5.95,5.04-9.29,6.74-1.52.77-4.3,1.55-6.11,1.99-1.43,5.15-3.01,7.48-6.45,11.54-.28.34-2.3,2.38-2.57,2.59l-1.81,1.43c-4.38,3.45-10.02,5.5-15.59,5.95ZM85.12,30.95c.14,0,.42.1.5.12s-.09.33-.16.34l-1.91.31c-.62.1-1.13.28-1.68.45-3.64,1.16-4.57,1.28-7.71,3.61-3.94,2.91-7.2,7.26-7.54,12.3-.15,2.13-.25,4.13-.19,6.26l.11,3.55v3.74s.02.71.02.71c0,.13.48.24.64.21l2.67-.5c3.78-.7,8.16-2.37,11.35-4.59,1.71-1.19,3.21-2.64,4.52-4.22.75-.91,1.6-2.37,2.19-3.36.86-1.46,1.36-2.73,1.94-4.37.43-1.22.8-4.59.73-6.02l-.11-2.33c-.19-3.84-2-8.37-4.05-11.56-.51-.8-1.02-1.57-1.65-2.28l-1.27-1.43c-2.5-2.83-4.39-4.11-7.67-5.91-4.83-2.64-11.92-3.43-17.26-2.21-2.72.62-5.36,1.34-7.74,2.83l-1.53.96c-.74.47-1.46,1.02-2.13,1.6-3.15,2.68-5.64,5.84-7.38,9.57-.65,1.39-1.31,2.78-1.61,4.31-.41,2.08-.81,4.14-.82,6.28,0,.79.55,4.68.71,5.33,1.37,5.34,4.92,9.87,9.37,12.95,4.11,2.84,7.09,3.47,11.79,4.53.81.18,1.59.32,2.41.36l-.03-6.29-.03-4.2c-.01-2.35.23-4.63-.59-6.82-.86-2.3-1.82-4.45-3.43-6.25-4.05-4.53-7.92-5.93-13.62-7.27-.61-.14-1.4.19-1.92-.47,8.42-1.14,17.22,1.42,21.95,8.81,2.6-3.92,5.61-6.2,10.02-7.66l1.48-.49c3.37-1.11,6.19-.91,9.63-.89ZM47.48,84.45c-.13-1.21-.11-2.34-.1-3.59l.05-16.27c0-1.11-.02-2.13-.06-3.3-4.6-2.57-7.16-3.88-10.74-7.87-4.93-5.5-6.07-12.51-3.52-19.74-3.96,1.02-8.16,3.89-11.06,6.79-4.62,4.16-7.91,11.91-7.12,18.06.32,2.51.88,5.51,1.91,7.7,1.53,3.25,2.95,5.41,5.4,8.06,3.33,3.6,7.25,6.43,11.58,8.74,1.99,1.06,4.03,1.68,6.22,2.23,1.8.45,7.77,2.16,7.44-.81ZM106.39,73.65c2.14-2.55,4.29-6.39,5.3-9.43,1.28-3.84,1.57-8.43.6-12.32-.42-1.67-.96-3.22-1.68-4.78-.88-1.88-2.17-3.46-3.36-5.17-.71-1.01-1.67-1.81-2.61-2.61l-1.45-1.23c-1.95-1.66-4.08-2.84-6.47-3.76-.63-.24-1.26-.62-1.93-.5.52,1.62.93,2.88,1.27,4.42.06.27,0,.91.04,1.21.76,4.85-1.71,11.01-5.14,14.56l-.69.72c-2.77,2.87-6.09,5.03-9.81,6.53.03.37.09.72.09,1.08v23.34c1.04.6,2.12.38,3.22.29,2.86-.22,5.49-.81,8.17-1.92,4-1.65,7.79-3.89,10.93-6.87,1.23-1.17,2.39-2.25,3.51-3.58ZM81.29,87.99c-1.71,0-3.33-.12-5.02-.08l-2.09.05c-.55.01-.94.04-1.53,0,2.01-1.27,2.46-3.09,2.43-5.27l-.02-1.75-.05-8.34-.03-4.61.11-5.04c-.28-.06-.81.02-1.3.13-2.35.55-4.74.84-7.23,1.08.09,1.99.07,4.05.02,6.11l-.03,1.4-.06,1.59v9.58s0,1.31,0,1.31v6.03c-.01,3.39,1.3,4.84,3.86,6.96-.66.4-1.51.05-2.3.05h-8.88c-.54,0-1.09.22-1.73.05,1.55-1.11,3.08-2.22,3.69-4.14l.49-1.52v-16.89s-.04-1.97-.04-1.97l.08-8.5-6.81-1.06-1.96-.5c.08,1.08.14,1.76.14,2.73l.03,18.86c0,1.41,1.07,2.83,2.4,3.73-2.81-.13-5.44-.07-8.18-.02l-2.6.05-2.51-.06-4.38-.17c.04.66.11,1.36.37,1.92l1.76,3.83c.96,2.08.92,1.37,1.99,3.03.77,1.19,1.75,2.14,2.72,3.16,1.95,2.02,4.76,4.2,7.32,5.36l1.97.89c1.3.59,2.61.84,4,1.19,4.32,1.09,8.66.93,13.02-.21,1.57-.41,3.14-.91,4.6-1.6,1.66-.79,5.6-3.39,6.82-4.59l1.83-1.8c.75-.74,1.49-1.7,2.05-2.57l.86-1.33c1.16-1.8,3.19-5.43,3.24-7.33l-1.74.17c-1.77.17-3.47.08-5.24.07h-2.05Z"/>
  <line class="st0" x1="-373.41" y1="-530.12" x2="89.65" y2="-530.12"/>
</svg>