<?xml version="1.0" encoding="UTF-8"?>
<svg id="_圖層_1" data-name="圖層_1" xmlns="http://www.w3.org/2000/svg" version="1.1" viewBox="0 0 315.53 115.76">
  <!-- Generator: Adobe Illustrator 30.1.0, SVG Export Plug-In . SVG Version: 2.1.1 Build 136)  -->
  <defs>
    <style>
      .st0 {
        fill: #c4a561;
      }
    </style>
  </defs>
  <line class="st0" x1="-397.41" y1="-530.12" x2="65.65" y2="-530.12"/>
  <path class="st0" d="M299.86,97.33l1.46-6.57,2.14-9.81,1.17-4.92c.03-.12,0-.37-.02-.47s-.38.13-.44.29c-.92,2.68-2.53,5.58-4.28,8.03-2.4,3.38-5.12,6.29-8.72,8.34-3.19,1.82-6.55,2.97-10.27,2.99l-13.53.09-5.4.09-4.89-.09c-1.59-.03-2.99.29-4.62-.23l3.08-4.24,2.31-3.42,5.63-8.4,4.34-6.67,12.99-19.81,8.3-12.7,6.04-9.26,6.71-10.16,1.56-2.26-12.11.07h-16.49s-13.25,0-13.25,0l-12.99-.05-1.96,11.02-1.7,7.95c1.73-2.88,2.98-5.55,4.94-8.02,4.63-5.83,10.25-8.7,17.73-8.93l8.86-.08,14.55.03-7.21,10.78-10.52,16.14-14.41,22.05-9.88,15.17c-2.81,4.32-5.39,8.53-8.53,12.88l3.2-.05,9.57.1,43.16.12h3.5ZM56.83,43.83l7.3-12.91c.4-.71.81-1.35,1.23-2.03,3.23-5.13,4.69-7.72,10.53-10.64l-16.29.08c3.01.93,4.82,2.87,4.44,5.86-.25,1.99-.99,3.8-1.9,5.58l-2.71,5.27-7.03,12.53-4.47,7.91c-.12.13-.45.47-.53.33l-.29-.55-5.15-9.53-2.64-4.7-5.01-9.26c-1.36-2.51-2.87-4.99-3.61-7.67-.81-2.93,1.12-4.94,4.04-5.75-2.98-.22-5.81-.1-8.75-.1h-13.55c1.31.92,2.75,1.36,3.87,2.37,3.06,2.76,5.09,6.24,7.09,9.78l1.99,3.53,5.16,9.5,6.08,11,2.7,4.62.06,28.66c0,2.89-.72,5.41-2.72,7.49-1.02,1.06-2.36,1.07-3.89,1.97l20.08.03c.84,0,1.61.3,2.43-.12-3.15-.78-5.35-2.75-6.07-5.83-.24-1.04-.52-2.17-.52-3.33l-.11-28.68c0-.87-.04-1.38.44-2.09,1.8-2.65,3.29-5.38,4.87-8.15l2.94-5.15ZM134.41,92.93c-3.71,1.86-7.55,2.42-11.65,2.45l-19.28.13.05-30.75c0-.53.33-1.48.53-1.92,1.35-2.97,4.1-5.08,7.48-5.47s6.57-.29,9.87.02c4.35.41,7.42,3.83,8.69,7.95l.19-7.46.09-10.67c0-.11.11-.48.14-.58s-.54-.03-.59.15c-.38,1.39-1.42,3.6-2.55,5.04-1.42,1.81-3.66,3-6.03,3.21-3.29.28-6.52.29-9.74-.18-2.39-.35-4.6-1.35-6.08-3.26-1.08-1.39-1.98-3.21-1.98-5.03l-.04-15.67-.04-10.8,19.09.03c4.1,0,7.87,1.35,11.36,3.35,4.39,2.52,7.76,8.33,9.99,12.8l-2.27-12.56-.75-3.84c-.11-.55-.35-1.17-.58-1.65l-51.44.04c4.18,1.38,5.36,4.83,5.37,8.76l.04,17.82c0,.93.3,1.79.61,2.6,1.64,4.38,6.47,6.94,10.8,7.71l5.55,1c-6.3.63-14.31,2.02-16.55,8.59-.6,1.76-.43,3.58-.44,5.47l-.12,17.89c-.01,1.64-.35,3.28-.91,4.71-.88,2.27-2.57,3.37-5.04,4.2,3.74.29,7.27.12,10.96.16l6.79.07,18.18-.02,14.57-.02,4.44.12,2.21-11.32,1.59-8.82c-.91,1.22-1.3,2.47-1.84,3.73-2.16,4.98-5.73,9.34-10.67,12.01ZM205.52,78.23l8.42,12.46c1.37,2.03,2.54,4.03,4.01,5.98.63.83,1.73,1.19,2.65.7l.05-15.96v-26.28s-.01-24.23-.01-24.23c0-4.65,1.13-10.88,6.1-12.32.1-.03.37-.23.32-.24-.06-.01-.35-.13-.45-.13l-4.26.08h-10.83c1.54.91,3.05,1.09,4.05,2.29,3.28,3.92,2.59,10.31,2.84,15.19.09,1.75.11,3.31.11,5.13l-.08,36.88-.14,3.61-1.16-1.59-4.23-6.54-3.75-5.62-3.49-5.35-10.01-15-2.84-4.28-5.95-9.13-7.03-10.69-3.28-5.01-14.3.13c3.09,1.33,5.46,2.94,6.12,6.09.34,1.63.2,3.36.34,5.05.05.62-.06,1.18-.06,1.84l-.05,33.18.04,14.28c0,.76-.1,1.56-.13,2.29l-.19,5.54c-.52,5.01-1.43,8.75-6.78,10.59l15.64-.03c.55,0,1.09.23,1.58-.1-7.14-1.3-7.88-8.43-7.88-14.44l.02-25.03-.06-18.5c0-.89-.18-1.75-.08-2.62.23-2.06.07-4.1.01-6.17l-.13-4.66c.71.45.79,1.05,1.17,1.63l6.54,9.99,7.85,11.87,4.82,7.23,7.4,11.12,3.52,5.45,3.57,5.3Z"/>
</svg>